<svg id="Layer_1" enable-background="new 0 0 100 100" viewBox="0 0 100 100" xmlns="http://www.w3.org/2000/svg"><path d="m65.8333359 2.5000024h-31.666668c-17.4890194 0-31.6666698 14.1776485-31.6666698 31.666666v31.6666679c.0000005 17.4890132 14.1776504 31.6666637 31.6666698 31.6666637h31.6666679c17.4890137 0 31.6666642-14.1776505 31.6666642-31.6666641v-31.666668c0-17.4890174-14.1776505-31.6666655-31.6666641-31.6666655zm4.8203735 51.018518h-33.7601929l11.6990738 13.9509239c1.271862 1.467453 1.1143875 3.687851-.3518486 4.961113-.6376724.5284271-1.4412994.8149948-2.2694473.8092575-1.0374985.0008469-2.0224838-.4562378-2.6916695-1.2490768l-16.4666634-19.527771-.1407394-.1583366c-.0979481-.1219101-.186182-.2513199-.2638893-.3870392l-.1583328-.281479c-.0706444-.1209602-.1239433-.2512474-.1583347-.3870392-.054966-.155838-.1019402-.3143806-.1407394-.4750023 0 0 0 0 0-.1407433-.0173912-.187252-.0173912-.3757095 0-.5629616-.0181293-.1872177-.0181293-.3757439 0-.5629616.0340385-.1924286.0870762-.3810043.1583328-.5629654.0343914-.135788.0876904-.2660751.1583347-.3870354l.1583328-.2814789c.0777073-.1357155.1659412-.2651253.2638893-.3870354l16.3962936-19.5277786c1.1824951-1.5420227 3.3911476-1.8334789 4.9331703-.6509876 1.5420227 1.1824894 1.8334808 3.3911457.6509895 4.9331684-.0633698.082634-.1303787.1624184-.2008247.2391129l-11.5759277 13.5990754h33.7601929c1.943222 0 3.5185165 1.5752945 3.5185165 3.5185204.0000001 1.943222-1.5752944 3.5185204-3.5185165 3.5185204z"/></svg>