<svg width="50" height="50" viewBox="0 0 50 50" fill="none" xmlns="http://www.w3.org/2000/svg">
<g clip-path="url(#clip0_1640_5629)">
<path d="M35.7028 10.2395C38.5257 10.2395 40.8225 7.94268 40.8225 5.11973C40.8225 2.29678 38.5257 0 35.7028 0C32.8798 0 30.5831 2.29678 30.5831 5.11973C30.5831 7.94268 32.8797 10.2395 35.7028 10.2395ZM35.7028 3.125C36.8027 3.125 37.6975 4.01982 37.6975 5.11973C37.6975 6.21963 36.8027 7.11445 35.7028 7.11445C34.6029 7.11445 33.7081 6.21963 33.7081 5.11973C33.7081 4.01982 34.6029 3.125 35.7028 3.125ZM27.6275 25.3724H43.7781C44.6411 25.3724 45.3406 24.6729 45.3406 23.8099V18.2324C45.3406 14.3371 42.1716 11.1681 38.2762 11.1681H33.1293C29.234 11.1681 26.065 14.3371 26.065 18.2324V23.8099C26.065 24.6728 26.7645 25.3724 27.6275 25.3724ZM29.19 18.2323C29.19 16.0602 30.9571 14.293 33.1293 14.293H38.2762C40.4484 14.293 42.2156 16.0602 42.2156 18.2323V22.2473H29.19V18.2323ZM49.8693 39.4275C49.3812 37.4246 46.9607 35.2271 45.016 33.7363C43.2523 32.3842 40.5533 30.6405 38.7517 30.1764C37.4435 29.8392 36.7142 30.2636 36.3326 30.6786C36.3326 30.6786 33.3174 33.9608 32.2645 35.0199C32.0978 35.1878 31.5794 35.1864 30.9441 35.0168C28.6401 34.4019 25.0575 31.8687 21.5945 28.4057C18.1316 24.9427 15.5984 21.3602 14.9834 19.0562C14.8138 18.4207 14.8125 17.9023 14.9803 17.7356C16.0403 16.6817 19.3216 13.6676 19.3216 13.6676C19.7366 13.286 20.1608 12.5566 19.8238 11.2485C19.3597 9.44687 17.616 6.74795 16.2638 4.98408C14.7728 3.03945 12.5753 0.618848 10.5725 0.130859C9.49533 -0.131543 8.48244 0.159473 7.79318 0.929492L2.26613 7.10352C-0.622151 10.3298 -0.751937 15.2173 1.89074 21.2376C4.08136 26.2281 8.08195 31.7707 13.1556 36.8443C18.2292 41.9181 23.7718 45.9187 28.7623 48.1093C31.6351 49.3703 34.2498 50 36.5492 50C39.0687 50 41.2097 49.2439 42.8965 47.7339L49.0705 42.2068C49.8405 41.5175 50.1317 40.5045 49.8693 39.4275ZM40.8122 45.4056C37.9748 47.9457 33.3763 46.7219 30.0185 45.2479C25.3749 43.2096 20.171 39.4403 15.3653 34.6347C10.5597 29.829 6.79054 24.625 4.75216 19.9815C3.27824 16.6236 2.05441 12.0252 4.59445 9.18779L9.95402 3.20088C10.521 3.41475 11.9531 4.46934 13.8797 7.01133C15.5281 9.18633 16.4507 10.9893 16.7324 11.8024C15.4767 12.9562 13.8334 14.4691 12.777 15.5194C12.066 16.2262 11.3479 17.5533 11.964 19.862C12.7236 22.7085 15.4979 26.7285 19.3847 30.6154C23.2716 34.5023 27.2915 37.2765 30.138 38.0361C32.4468 38.6521 33.7737 37.9342 34.4806 37.2231C35.5309 36.1667 37.0444 34.5229 38.1976 33.2677C39.0108 33.5494 40.8137 34.4719 42.9887 36.1203C45.5307 38.047 46.5853 39.4791 46.7991 40.046L40.8122 45.4056Z" fill="#A3DAF8"/>
</g>
<defs>
<clipPath id="clip0_1640_5629">
<rect width="50" height="50" fill="white"/>
</clipPath>
</defs>
</svg>
