<svg width="24" height="24" viewBox="0 0 24 24" fill="none" xmlns="http://www.w3.org/2000/svg">
<g clip-path="url(#clip0_1648_5395)">
<path d="M11.25 17.25C11.25 17.6642 11.5858 18 12 18C12.4142 18 12.75 17.6642 12.75 17.25V14.6093L13.3349 15.2163C13.6223 15.5146 14.0971 15.5234 14.3954 15.236C14.6937 14.9486 14.7025 14.4738 14.4151 14.1756L12.5401 12.2296C12.3987 12.0829 12.2037 12 12 12C11.7963 12 11.6013 12.0829 11.4599 12.2296L9.58491 14.1756C9.29751 14.4738 9.30633 14.9486 9.6046 15.236C9.90288 15.5234 10.3777 15.5146 10.6651 15.2163L11.25 14.6093V17.25Z" fill="#A3DAF8"/>
<path fill-rule="evenodd" clip-rule="evenodd" d="M12 9.375C15.1066 9.375 17.625 11.8934 17.625 15C17.625 18.1066 15.1066 20.625 12 20.625C8.89339 20.625 6.375 18.1066 6.375 15C6.375 11.8934 8.89339 9.375 12 9.375ZM16.125 15C16.125 12.7218 14.2782 10.875 12 10.875C9.72184 10.875 7.875 12.7218 7.875 15C7.875 17.2782 9.72184 19.125 12 19.125C14.2782 19.125 16.125 17.2782 16.125 15Z" fill="#A3DAF8"/>
<path fill-rule="evenodd" clip-rule="evenodd" d="M0.75 20.25C0.75 21.9069 2.09314 23.25 3.75 23.25H20.25C21.9069 23.25 23.25 21.9069 23.25 20.25V5.625C23.25 3.96814 21.9069 2.625 20.25 2.625H18.75V1.5C18.75 1.08579 18.4142 0.75 18 0.75C17.5858 0.75 17.25 1.08579 17.25 1.5V2.625H6.75V1.5C6.75 1.08579 6.41422 0.75 6 0.75C5.58578 0.75 5.25 1.08579 5.25 1.5V2.625H3.75C2.09315 2.625 0.75 3.96814 0.75 5.625V20.25ZM3.75 4.125C2.92158 4.125 2.25 4.79659 2.25 5.625V6.75H21.75V5.625C21.75 4.79659 21.0784 4.125 20.25 4.125H3.75ZM21.75 20.25V8.25H2.25V20.25C2.25 21.0784 2.92157 21.75 3.75 21.75H20.25C21.0784 21.75 21.75 21.0784 21.75 20.25Z" fill="#A3DAF8"/>
</g>
<defs>
<clipPath id="clip0_1648_5395">
<rect width="24" height="24" fill="white"/>
</clipPath>
</defs>
</svg>
